HIERARCHY
ROOT Hips
{
 OFFSET 0.000000 0.000000 0.000000
 CHANNELS 6 Xposition Yposition Zposition Yrotation Xrotation Zrotation
 JOINT Chest
 {
  OFFSET 0.000000 9.585900 0.002600
  CHANNELS 3 Yrotation Xrotation Zrotation
  JOINT Chest2
  {
   OFFSET 0.000000 9.601200 -0.005300
   CHANNELS 3 Yrotation Xrotation Zrotation
   JOINT Chest3
   {
    OFFSET 0.000000 9.561800 0.000000
    CHANNELS 3 Yrotation Xrotation Zrotation
    JOINT Chest4
    {
     OFFSET 0.000000 9.552100 0.000000
     CHANNELS 3 Yrotation Xrotation Zrotation
     JOINT Neck
     {
      OFFSET 0.000000 14.453000 0.000000
      CHANNELS 3 Yrotation Xrotation Zrotation
      JOINT Head
      {
       OFFSET 0.000000 8.936500 -0.011300
       CHANNELS 3 Yrotation Xrotation Zrotation
       End Site
       {
        OFFSET 0.000000 17.073600 -0.006000
       }
      }
     }
     JOINT RightCollar
     {
      OFFSET -2.921100 9.558500 0.000000
      CHANNELS 3 Yrotation Xrotation Zrotation
      JOINT RightShoulder
      {
       OFFSET -13.519700 0.000000 0.000000
       CHANNELS 3 Yrotation Xrotation Zrotation
       JOINT RightElbow
       {
        OFFSET 0.000000 -29.696600 0.000000
        CHANNELS 3 Yrotation Xrotation Zrotation
        JOINT RightWrist
        {
         OFFSET 0.000000 -24.004700 0.000000
         CHANNELS 3 Yrotation Xrotation Zrotation
         End Site
         {
          OFFSET 0.000000 -17.728500 0.000000
         }
        }
       }
      }
     }
     JOINT LeftCollar
     {
      OFFSET 2.921100 9.558500 0.000000
      CHANNELS 3 Yrotation Xrotation Zrotation
      JOINT LeftShoulder
      {
       OFFSET 13.519700 0.000000 0.000000
       CHANNELS 3 Yrotation Xrotation Zrotation
       JOINT LeftElbow
       {
        OFFSET 0.000000 -29.696600 0.000000
        CHANNELS 3 Yrotation Xrotation Zrotation
        JOINT LeftWrist
        {
         OFFSET 0.000000 -24.004700 0.000000
         CHANNELS 3 Yrotation Xrotation Zrotation
         End Site
         {
          OFFSET 0.000000 -17.728500 0.000000
         }
        }
       }
      }
     }
    }
   }
  }
 }
 JOINT RightHip
 {
  OFFSET -7.771700 -0.012900 -0.001300
  CHANNELS 3 Yrotation Xrotation Zrotation
  JOINT RightKnee
  {
   OFFSET 0.000000 -40.869800 0.001200
   CHANNELS 3 Yrotation Xrotation Zrotation
   JOINT RightAnkle
   {
    OFFSET 0.000000 -39.717900 0.002100
    CHANNELS 3 Yrotation Xrotation Zrotation
    JOINT RightToe
    {
     OFFSET 0.000000 -4.965400 11.033500
     CHANNELS 3 Yrotation Xrotation Zrotation
     End Site
     {
      OFFSET 0.000000 -1.423100 5.872300
     }
    }
   }
  }
 }
 JOINT LeftHip
 {
  OFFSET 7.771700 -0.012900 -0.001300
  CHANNELS 3 Yrotation Xrotation Zrotation
  JOINT LeftKnee
  {
   OFFSET 0.000000 -40.869800 0.001200
   CHANNELS 3 Yrotation Xrotation Zrotation
   JOINT LeftAnkle
   {
    OFFSET 0.000000 -39.717900 0.002100
    CHANNELS 3 Yrotation Xrotation Zrotation
    JOINT LeftToe
    {
     OFFSET 0.000000 -4.965400 11.033500
     CHANNELS 3 Yrotation Xrotation Zrotation
     End Site
     {
      OFFSET 0.000000 -1.423100 5.872300
     }
    }
   }
  }
 }
}
MOTION
Frames: 13
Frame Time: 0.008333
12.871100 49.963578 51.199475 174.565916 -31.262204 -6.611197 6.088386 19.412976 7.566560 0.698986 2.626760 0.756883 1.105698 4.195883 1.229548 5.177635 16.742705 5.567298 -1.912844 17.169634 0.759301 -3.792317 -3.862091 2.052948 -1.751374 -3.015760 -5.665565 4.179520 -4.380173 -1.835555 88.415347 -71.272873 -99.213542 5.399283 3.284636 6.888080 -10.086225 -1.075045 0.748487 3.488227 -6.069056 -3.249890 -107.261145 -55.682747 116.419041 -1.710255 12.831847 -26.269766 1.612163 -49.978964 8.140413 -113.191618 84.756575 -102.005776 -1.843518 -11.591124 -2.220917 -0.296308 0.900684 -0.145358 -9.088621 -53.102700 15.810130 -149.823305 80.577750 -157.707754 0.097737 -15.334442 8.647860 -0.245922 -0.808364 -0.066203
12.874337 49.966060 51.207292 174.569119 -31.293544 -6.613735 6.115598 19.461305 7.585718 0.692067 2.641120 0.759794 1.134144 4.269585 1.245133 5.142837 16.680785 5.543426 -1.925077 17.223752 0.755676 -3.827885 -3.848720 2.041685 -1.770005 -2.964886 -5.670278 4.256172 -4.364288 -1.837884 88.262233 -71.363865 -99.084526 5.385532 3.249807 6.645627 -10.095173 -1.053265 0.746948 3.578689 -6.059124 -3.168831 -107.274777 -55.900760 116.335812 -1.922919 13.258250 -26.857706 1.609463 -49.948111 8.150256 -113.080015 84.751775 -101.894670 -1.858717 -11.593360 -2.220087 -0.323655 0.905777 -0.144778 -9.062815 -53.073679 15.815308 -149.699547 80.579759 -157.591663 0.088070 -15.313966 8.662784 -0.248596 -0.814032 -0.068325
12.876824 49.967598 51.217429 174.562965 -31.312623 -6.609245 6.144435 19.515255 7.606500 0.685402 2.629649 0.754308 1.137665 4.299204 1.252368 5.152224 16.741465 5.551522 -1.952381 17.207312 0.743249 -3.866725 -3.835542 2.030781 -1.786744 -2.919545 -5.673890 4.299042 -4.430430 -1.860254 88.088431 -71.451589 -98.911504 5.368037 3.212083 6.422494 -10.103263 -1.085716 0.743518 3.678014 -6.069661 -3.090480 -107.312596 -56.194259 116.237330 -2.122715 13.684297 -27.424061 1.615382 -49.932277 8.157893 -112.898196 84.741767 -101.707088 -1.909107 -11.588689 -2.209243 -0.335525 0.907612 -0.152937 -9.029534 -53.056865 15.819606 -149.634682 80.591439 -157.534112 0.062563 -15.292891 8.683260 -0.241746 -0.815934 -0.074215
12.878005 49.970007 51.226715 174.563236 -31.338700 -6.601961 6.149035 19.546857 7.604916 0.685959 2.633042 0.754965 1.141119 4.346458 1.266811 5.157158 16.780039 5.553637 -1.970589 17.163606 0.729548 -3.918472 -3.770257 2.027967 -1.784732 -2.899975 -5.676064 4.328947 -4.456264 -1.876671 87.898372 -71.526470 -98.720379 5.356426 3.175871 6.233754 -10.101168 -1.077728 0.737775 3.780148 -6.100381 -3.016050 -107.360295 -56.533635 116.133915 -2.317307 14.104260 -27.977685 1.621193 -49.909044 8.152471 -112.795218 84.737521 -101.603352 -1.924155 -11.581248 -2.210313 -0.287986 0.905779 -0.151147 -8.996173 -53.031773 15.811281 -149.606326 80.608431 -157.513700 0.034868 -15.267974 8.698163 -0.244984 -0.820118 -0.077203
12.879072 49.972420 51.237110 174.562572 -31.359127 -6.597698 6.151402 19.588423 7.613765 0.687894 2.646979 0.757267 1.143710 4.368031 1.270931 5.151070 16.749182 5.536055 -1.980717 17.191268 0.729836 -3.974248 -3.709160 2.030560 -1.771819 -2.834360 -5.663966 4.359542 -4.450928 -1.890082 87.738437 -71.592123 -98.567651 5.366381 3.121266 6.088016 -10.093680 -1.020146 0.736235 3.875627 -6.112148 -2.947415 -107.388242 -56.881984 116.027624 -2.527755 14.523909 -28.546711 1.625091 -49.890100 8.143641 -112.696060 84.741232 -101.508010 -1.881700 -11.570734 -2.228381 -0.282721 0.907504 -0.138823 -8.978086 -53.010452 15.809371 -149.634942 80.633062 -157.553530 0.020975 -15.241151 8.710134 -0.261533 -0.823419 -0.087739
12.877459 49.974538 51.248366 174.568805 -31.370690 -6.586406 6.139526 19.646745 7.619003 0.694195 2.656268 0.756687 1.145624 4.370304 1.266380 5.163486 16.854420 5.561346 -2.027501 17.200051 0.717051 -4.005836 -3.777480 2.014691 -1.761769 -2.909782 -5.682386 4.367397 -4.485955 -1.910252 87.496570 -71.656355 -98.303026 5.401920 3.029572 5.986076 -10.088562 -1.102406 0.721793 3.955422 -6.126827 -2.886782 -107.368661 -57.201046 115.902061 -2.760610 14.948345 -29.140710 1.634542 -49.879273 8.123596 -112.586227 84.739176 -101.398840 -1.891968 -11.570394 -2.221262 -0.248744 0.915739 -0.144150 -8.933571 -53.000273 15.789367 -149.569505 80.656834 -157.500171 -0.007982 -15.208327 8.741674 -0.265594 -0.829148 -0.092000
12.870475 49.978061 51.256775 174.591301 -31.393764 -6.555913 6.105783 19.699043 7.584139 0.698038 2.651502 0.754634 1.147208 4.380069 1.267620 5.174063 16.934998 5.579906 -2.059301 17.202674 0.708524 -4.044739 -3.797477 2.007625 -1.758644 -2.935298 -5.684528 4.380255 -4.518393 -1.930066 87.442480 -71.682759 -98.253636 5.371238 3.049752 5.886254 -10.084610 -1.131571 0.714379 4.023974 -6.137489 -2.835369 -107.306391 -57.468227 115.758478 -3.013618 15.368518 -29.762256 1.654681 -49.853319 8.064732 -112.530625 84.741693 -101.348439 -1.935276 -11.545596 -2.222332 -0.285541 0.884318 -0.132778 -8.859813 -52.979629 15.716664 -149.519089 80.681485 -157.458839 -0.077021 -15.190878 8.766525 -0.235621 -0.813097 -0.083260
12.871327 49.981689 51.268706 174.572229 -31.402112 -6.559619 6.127975 19.728087 7.606110 0.696336 2.696725 0.766194 1.153312 4.376274 1.263275 5.176353 16.952378 5.576548 -2.081954 17.202080 0.703058 -4.084700 -3.798087 2.005215 -1.762428 -2.935740 -5.681447 4.426403 -4.433386 -1.926368 87.719100 -71.689374 -98.583610 5.356481 3.064437 5.802808 -10.083824 -1.173897 0.712030 4.091589 -6.102194 -2.789333 -107.237874 -57.689527 115.619437 -3.293671 15.760534 -30.415026 1.613970 -49.841211 8.102423 -112.371893 84.750164 -101.206399 -1.900102 -11.562788 -2.214107 -0.316570 0.910547 -0.154844 -8.813642 -52.971825 15.736831 -149.439410 80.701033 -157.381044 -0.095061 -15.135846 8.798325 -0.249848 -0.837523 -0.094164
12.870749 49.986418 51.279311 174.557900 -31.413167 -6.563778 6.147846 19.763245 7.626441 0.697484 2.706369 0.767703 1.155920 4.403824 1.268607 5.174147 16.967260 5.573078 -2.101804 17.197947 0.697595 -4.119588 -3.805390 2.001922 -1.768656 -2.935883 -5.684294 4.444132 -4.442520 -1.928407 87.391388 -71.798346 -98.207091 5.378119 2.969334 5.581193 -10.078160 -1.146773 0.709537 4.162834 -6.130171 -2.750545 -107.199491 -57.884853 115.509321 -3.608922 16.106646 -31.106385 1.601674 -49.828918 8.122112 -112.155360 84.744723 -100.992072 -1.876263 -11.546275 -2.220681 -0.339010 0.905211 -0.153575 -8.795635 -52.960075 15.750070 -149.409426 80.716594 -157.350564 -0.104421 -15.108396 8.807688 -0.252182 -0.843255 -0.097113
12.867676 49.991722 51.288838 174.547999 -31.422413 -6.562058 6.159408 19.792308 7.635483 0.698993 2.703863 0.767036 1.153797 4.433779 1.274388 5.170519 16.990652 5.573256 -2.106594 17.161975 0.687173 -4.161504 -3.788630 2.001322 -1.777860 -2.934737 -5.693561 4.463289 -4.472989 -1.928539 87.206222 -71.886260 -97.988447 5.417961 2.873752 5.451073 -10.067307 -1.110017 0.705669 4.244179 -6.158810 -2.715576 -107.204723 -58.052713 115.436490 -3.952186 16.391027 -31.843745 1.594678 -49.817254 8.129507 -111.948198 84.730822 -100.786266 -1.857124 -11.534513 -2.225123 -0.337354 0.900894 -0.152797 -8.782135 -52.949006 15.752032 -149.403567 80.735633 -157.348905 -0.109339 -15.075850 8.813955 -0.256585 -0.850879 -0.101155
12.859567 49.995535 51.299554 174.540041 -31.410053 -6.539039 6.157231 19.788413 7.615232 0.698213 2.714965 0.769036 1.150930 4.449653 1.277653 5.166044 17.006057 5.573097 -2.109592 17.145655 0.679445 -4.176436 -3.798181 1.998299 -1.795840 -2.917120 -5.702437 4.474202 -4.460792 -1.914420 87.277085 -71.960308 -98.026888 5.454627 2.791225 5.341168 -10.057533 -1.115453 0.702056 4.337707 -6.118516 -2.682258 -107.252512 -58.170582 115.394575 -4.298594 16.594169 -32.613662 1.577350 -49.822234 8.117476 -111.747029 84.725748 -100.596834 -1.873533 -11.533200 -2.222094 -0.279512 0.908875 -0.165310 -8.727246 -52.959596 15.720521 -149.477943 80.772541 -157.437322 -0.147323 -15.040641 8.847670 -0.265434 -0.853560 -0.107922
12.858437 50.002301 51.307384 174.525516 -31.417116 -6.559469 6.176765 19.819221 7.649774 0.697810 2.721225 0.769945 1.156186 4.427054 1.272076 5.164082 17.010799 5.572933 -2.133870 17.183422 0.683552 -4.174675 -3.831748 1.987414 -1.824722 -2.873221 -5.705012 4.480517 -4.444586 -1.897950 87.410650 -72.052207 -98.120577 5.502778 2.700605 5.227058 -10.056801 -1.029961 0.704394 4.451179 -6.129607 -2.659622 -107.347845 -58.237888 115.380108 -4.618437 16.707061 -33.376473 1.539361 -49.811510 8.156197 -111.601516 84.732202 -100.467426 -1.763418 -11.504864 -2.248419 -0.311582 0.895440 -0.153046 -8.679510 -52.951388 15.729680 -149.398467 80.781443 -157.330014 -0.172636 -15.025919 8.859970 -0.250628 -0.843405 -0.104738
12.851793 50.008019 51.314447 174.520951 -31.412259 -6.557624 6.173038 19.838657 7.648879 0.697490 2.726678 0.770486 1.155632 4.435313 1.272905 5.158204 17.026990 5.571783 -2.146259 17.178258 0.678973 -4.195933 -3.841000 1.983355 -1.840303 -2.874202 -5.715791 4.475286 -4.424987 -1.873979 87.597184 -72.153380 -98.261119 5.549485 2.597046 5.108670 -10.039326 -0.994151 0.708397 4.584371 -6.122812 -2.635244 -107.508809 -58.289829 115.399976 -4.884909 16.738229 -34.084409 1.530143 -49.811164 8.153964 -111.467576 84.732667 -100.339649 -1.734343 -11.497434 -2.253201 -0.240497 0.893708 -0.150560 -8.636969 -52.955576 15.710868 -149.441209 80.807396 -157.366152 -0.198176 -14.989707 8.871045 -0.254550 -0.848873 -0.102374
